<?xml version="1.0" standalone="no"?>
<!DOCTYPE svg PUBLIC "-//W3C//DTD SVG 20010904//EN"
 "http://www.w3.org/TR/2001/REC-SVG-20010904/DTD/svg10.dtd">
<svg version="1.0" xmlns="http://www.w3.org/2000/svg"
 width="500.000000pt" height="500.000000pt" viewBox="0 0 500.000000 500.000000"
 preserveAspectRatio="xMidYMid meet">

<g transform="translate(0.000000,500.000000) scale(0.100000,-0.100000)"
fill="#000000" stroke="none">
<path d="M2315 4994 c-521 -56 -930 -213 -1324 -507 -123 -92 -376 -345 -468
-468 -515 -690 -650 -1568 -361 -2364 338 -932 1209 -1580 2198 -1635 727 -40
1398 216 1910 729 215 216 341 393 475 666 254 519 319 1108 185 1670 -85 355
-257 705 -487 990 -97 120 -286 306 -403 397 -336 260 -744 436 -1162 499
-128 20 -466 33 -563 23z m-510 -1457 c178 -384 325 -700 327 -702 5 -5 285
621 326 729 18 49 37 108 41 130 5 31 11 41 25 41 15 0 60 -95 231 -484 117
-266 216 -490 221 -498 6 -9 113 217 348 737 272 603 342 750 357 750 11 0 19
-6 19 -12 0 -7 41 -350 90 -763 50 -412 90 -755 90 -762 0 -10 -32 -13 -133
-13 l-134 0 -37 433 c-21 237 -41 440 -44 450 -5 13 -66 -112 -209 -430 l-202
-448 -197 0 -197 0 -111 282 c-61 156 -114 283 -117 283 -3 0 -59 -128 -124
-285 l-119 -285 -171 0 -171 0 -139 303 c-76 166 -166 358 -199 427 l-59 125
-38 -415 c-21 -228 -38 -421 -38 -427 -1 -10 -26 -13 -92 -13 l-91 0 6 38 c6
38 176 1494 176 1506 0 4 9 6 21 4 17 -2 79 -129 344 -701z m1236 -1011 c-49
-61 -50 -65 -29 -69 20 -4 19 -4 -5 -6 -21 -1 -34 -12 -57 -48 -17 -26 -30
-43 -30 -37 0 5 11 26 25 47 l26 37 -65 0 c-59 0 -68 -3 -106 -35 -23 -19 -45
-35 -48 -35 -4 0 9 14 28 30 l35 29 -40 2 c-38 1 -38 2 14 10 38 7 72 22 115
52 34 24 68 47 76 52 29 16 2 -7 -61 -51 l-63 -44 61 0 61 0 51 64 c28 35 51
70 52 77 0 11 2 11 6 1 2 -6 -18 -41 -46 -76z m28 70 c-10 -9 -69 -36 -69 -32
0 7 52 35 64 36 5 0 7 -2 5 -4z m578 -60 c-9 -13 -13 -33 -10 -44 4 -15 -11
-37 -56 -86 -34 -36 -61 -70 -61 -76 0 -27 71 3 173 72 92 62 129 98 117 113
-8 9 -2 20 21 39 34 29 55 26 39 -4 -6 -10 -15 -22 -20 -25 -6 -3 -7 -17 -4
-31 5 -20 -5 -36 -55 -89 -34 -36 -61 -70 -61 -75 0 -27 70 3 181 76 67 44 89
53 89 34 0 -5 -7 -6 -17 -3 -11 4 -14 3 -9 -6 5 -7 2 -10 -5 -9 -7 2 -15 -6
-17 -16 -4 -17 1 -18 39 -13 28 4 38 2 28 -4 -22 -14 -77 -11 -81 5 -2 9 -28
-1 -88 -36 -82 -47 -119 -56 -127 -31 -2 6 23 40 56 76 34 35 61 72 61 81 0
23 -13 20 -41 -10 -51 -56 -229 -164 -269 -164 -34 0 -23 28 40 95 33 35 60
68 60 73 0 23 -16 18 -53 -14 -70 -64 -187 -106 -187 -68 0 10 -5 14 -15 10
-63 -25 -61 -21 9 17 l48 27 -16 -25 c-20 -31 -20 -35 2 -35 53 1 204 102 183
123 -17 17 -13 26 22 47 36 22 47 12 24 -24z m-2390 -67 l41 -70 38 67 c22 37
44 67 49 68 6 1 11 -38 13 -91 2 -57 -1 -93 -7 -93 -6 0 -11 33 -13 73 l-3 72
-33 -57 c-19 -32 -37 -60 -41 -62 -4 -3 -24 23 -44 57 l-37 62 0 -72 c0 -42
-4 -73 -10 -73 -6 0 -10 38 -10 95 0 52 4 95 8 95 5 0 27 -32 49 -71z m253
-24 c0 -57 -4 -95 -10 -95 -6 0 -10 38 -10 95 0 57 4 95 10 95 6 0 10 -38 10
-95z m214 85 c14 -5 26 -15 26 -21 0 -7 -7 -8 -17 -4 -41 18 -69 16 -96 -5
-34 -27 -37 -80 -6 -111 18 -18 29 -21 73 -16 46 6 49 5 32 -8 -36 -27 -103
-15 -133 24 -7 9 -13 35 -13 58 0 34 5 46 31 67 32 28 62 32 103 16z m126 -35
l0 -46 58 3 57 3 3 43 c6 80 22 42 22 -53 0 -95 -16 -133 -22 -52 l-3 42 -57
3 -58 3 0 -46 c0 -25 -4 -45 -10 -45 -6 0 -10 38 -10 95 0 57 4 95 10 95 6 0
10 -20 10 -45z m334 -17 c15 -35 34 -78 42 -95 9 -20 10 -33 4 -33 -6 0 -16
11 -22 25 -10 22 -17 25 -63 25 -46 0 -53 -3 -63 -25 -19 -40 -33 -29 -15 13
29 69 73 152 82 152 4 0 20 -28 35 -62z m246 52 c0 -5 -22 -10 -50 -10 l-50 0
0 -35 c0 -35 0 -35 48 -37 l47 -2 -47 -3 c-47 -4 -48 -5 -48 -39 l0 -34 55 0
c30 0 55 -4 55 -10 0 -6 -30 -10 -70 -10 l-70 0 0 88 c0 49 3 92 7 95 10 11
123 8 123 -3z m110 -75 l0 -85 50 0 c28 0 50 -4 50 -10 0 -6 -27 -10 -60 -10
l-60 0 0 95 c0 57 4 95 10 95 6 0 10 -35 10 -85z m610 -11 c0 -2 -20 -28 -45
-59 -25 -30 -43 -55 -40 -55 3 0 47 28 98 61 51 34 83 52 73 40 -32 -35 -9
-37 34 -2 22 17 40 28 40 24 -1 -10 -30 -49 -30 -39 0 4 -14 -1 -31 -11 -23
-13 -33 -15 -36 -6 -6 17 -165 -87 -231 -150 l-53 -52 147 -5 146 -5 161 -367
c146 -333 163 -368 185 -368 55 0 126 64 137 123 4 18 -5 157 -19 310 -14 152
-26 284 -26 292 0 13 23 15 140 15 137 0 140 0 145 -22 2 -13 18 -134 34 -269
24 -206 33 -254 54 -295 47 -93 121 -137 240 -142 73 -4 77 -5 77 -28 l0 -24
-394 -2 -393 -3 60 -133 c44 -99 73 -148 109 -188 62 -68 152 -114 237 -121
51 -5 61 -9 61 -24 0 -18 -18 -19 -445 -19 -438 0 -445 0 -445 20 0 17 7 20
43 20 58 0 107 27 134 75 43 76 41 84 -178 634 -111 278 -205 509 -208 514
-20 21 -75 -75 -178 -308 -111 -250 -164 -392 -178 -473 -6 -36 -10 -43 -28
-40 -17 2 -56 78 -208 408 -104 223 -188 408 -188 413 -1 4 62 6 139 5 l141
-3 72 -157 c40 -86 75 -159 78 -162 3 -3 38 69 79 159 l74 165 63 0 c60 0 68
3 142 53 67 45 178 153 167 164 -2 2 -17 -4 -34 -14 -17 -10 -34 -14 -39 -10
-9 10 9 40 28 45 8 2 6 -3 -5 -12 -33 -26 -10 -29 33 -4 45 25 55 43 16 28
-14 -5 -33 -6 -42 -2 -13 5 -7 8 22 12 37 5 65 3 65 -6z m931 -24 c-13 -11
-28 -20 -35 -20 -6 0 3 9 19 19 39 25 46 25 16 1z m-775 -38 c-10 -2 -22 0
-28 6 -6 6 0 7 19 4 21 -5 23 -7 9 -10z m-1912 -224 c-10 -76 -44 -495 -44
-547 0 -68 30 -119 83 -145 79 -37 70 -48 217 282 73 163 148 330 166 370 l33
72 99 0 99 0 -210 -502 c-191 -458 -210 -508 -211 -564 -1 -52 3 -66 27 -97
35 -46 74 -67 127 -67 33 0 40 -3 40 -20 0 -20 -7 -20 -395 -20 -380 0 -395 1
-395 19 0 16 9 19 63 23 69 4 126 29 195 85 63 51 88 89 152 230 l59 128 -352
5 c-344 5 -352 5 -352 25 0 18 9 21 80 26 54 3 94 12 121 27 53 27 117 99 132
149 10 29 72 503 72 545 0 4 45 8 99 8 l100 0 -5 -32z"/>
<path d="M3616 2541 c-10 -11 -13 -22 -8 -25 9 -6 20 4 36 32 11 19 -9 14 -28
-7z"/>
<path d="M3827 2542 c-10 -10 -14 -22 -10 -25 7 -8 43 21 43 35 0 14 -16 9
-33 -10z"/>
<path d="M2125 2471 c-10 -23 -16 -44 -13 -47 3 -3 22 -4 41 -2 l35 3 -22 43
-22 44 -19 -41z"/>
<path d="M2930 2227 c-25 -18 -46 -40 -47 -51 -1 -13 12 -5 48 30 67 66 67 69
-1 21z"/>
</g>
</svg>
